<mxfile host="app.diagrams.net" modified="2023-09-16T17:58:18.873Z" agent="Mozilla/5.0 (X11; Ubuntu; Linux x86_64; rv:109.0) Gecko/20100101 Firefox/117.0" etag="2mewd1Cc-9DFjTD8qTbJ" version="21.7.5" type="github">
  <diagram name="Page-1" id="g0Uzo-YRW3idvvd9ve91">
    <mxGraphModel dx="808" dy="437" grid="1" gridSize="10" guides="1" tooltips="1" connect="1" arrows="1" fold="1" page="1" pageScale="1" pageWidth="2339" pageHeight="3300" math="0" shadow="0">
      <root>
        <mxCell id="0" />
        <mxCell id="1" parent="0" />
        <mxCell id="etSmLf3MKr0KJwKuyJHP-2" value="" style="rounded=1;whiteSpace=wrap;html=1;fillColor=#dae8fc;strokeColor=#6c8ebf;" vertex="1" parent="1">
          <mxGeometry x="210" y="180" width="470" height="60" as="geometry" />
        </mxCell>
        <mxCell id="etSmLf3MKr0KJwKuyJHP-1" value="" style="rounded=1;whiteSpace=wrap;html=1;fillColor=#dae8fc;strokeColor=#6c8ebf;" vertex="1" parent="1">
          <mxGeometry x="210" y="40" width="470" height="120" as="geometry" />
        </mxCell>
        <mxCell id="etSmLf3MKr0KJwKuyJHP-3" value="" style="rounded=1;whiteSpace=wrap;html=1;fillColor=#dae8fc;strokeColor=#6c8ebf;" vertex="1" parent="1">
          <mxGeometry x="210" y="280" width="470" height="60" as="geometry" />
        </mxCell>
        <mxCell id="etSmLf3MKr0KJwKuyJHP-4" value="" style="rounded=1;whiteSpace=wrap;html=1;fillColor=#dae8fc;strokeColor=#6c8ebf;" vertex="1" parent="1">
          <mxGeometry x="210" y="390" width="470" height="60" as="geometry" />
        </mxCell>
        <mxCell id="etSmLf3MKr0KJwKuyJHP-5" value="&lt;font style=&quot;font-size: 14px;&quot;&gt;Aplicação&lt;/font&gt;" style="text;html=1;align=center;verticalAlign=middle;resizable=0;points=[];autosize=1;strokeColor=none;fillColor=none;" vertex="1" parent="1">
          <mxGeometry x="700" y="58" width="80" height="30" as="geometry" />
        </mxCell>
        <mxCell id="etSmLf3MKr0KJwKuyJHP-7" value="&lt;font style=&quot;font-size: 14px;&quot;&gt;Driver&lt;/font&gt;" style="text;html=1;align=center;verticalAlign=middle;resizable=0;points=[];autosize=1;strokeColor=none;fillColor=none;" vertex="1" parent="1">
          <mxGeometry x="710" y="295" width="60" height="30" as="geometry" />
        </mxCell>
        <mxCell id="etSmLf3MKr0KJwKuyJHP-8" value="&lt;font style=&quot;font-size: 14px;&quot;&gt;Hardware&lt;/font&gt;" style="text;html=1;align=center;verticalAlign=middle;resizable=0;points=[];autosize=1;strokeColor=none;fillColor=none;" vertex="1" parent="1">
          <mxGeometry x="700" y="405" width="80" height="30" as="geometry" />
        </mxCell>
        <mxCell id="etSmLf3MKr0KJwKuyJHP-17" style="edgeStyle=orthogonalEdgeStyle;rounded=0;orthogonalLoop=1;jettySize=auto;html=1;" edge="1" parent="1" source="etSmLf3MKr0KJwKuyJHP-9" target="etSmLf3MKr0KJwKuyJHP-12">
          <mxGeometry relative="1" as="geometry">
            <Array as="points">
              <mxPoint x="445" y="110" />
              <mxPoint x="445" y="110" />
            </Array>
          </mxGeometry>
        </mxCell>
        <mxCell id="etSmLf3MKr0KJwKuyJHP-23" style="edgeStyle=orthogonalEdgeStyle;rounded=0;orthogonalLoop=1;jettySize=auto;html=1;entryX=0.5;entryY=0;entryDx=0;entryDy=0;" edge="1" parent="1" source="etSmLf3MKr0KJwKuyJHP-9" target="etSmLf3MKr0KJwKuyJHP-11">
          <mxGeometry relative="1" as="geometry" />
        </mxCell>
        <mxCell id="etSmLf3MKr0KJwKuyJHP-9" value="Main" style="rounded=1;whiteSpace=wrap;html=1;fillColor=#b1ddf0;strokeColor=#10739e;" vertex="1" parent="1">
          <mxGeometry x="405" y="42" width="80" height="40" as="geometry" />
        </mxCell>
        <mxCell id="etSmLf3MKr0KJwKuyJHP-18" style="edgeStyle=orthogonalEdgeStyle;rounded=0;orthogonalLoop=1;jettySize=auto;html=1;entryX=0.5;entryY=0;entryDx=0;entryDy=0;" edge="1" parent="1" source="etSmLf3MKr0KJwKuyJHP-12" target="etSmLf3MKr0KJwKuyJHP-10">
          <mxGeometry relative="1" as="geometry">
            <Array as="points">
              <mxPoint x="445" y="130" />
            </Array>
          </mxGeometry>
        </mxCell>
        <mxCell id="etSmLf3MKr0KJwKuyJHP-19" style="edgeStyle=orthogonalEdgeStyle;rounded=0;orthogonalLoop=1;jettySize=auto;html=1;" edge="1" parent="1" source="etSmLf3MKr0KJwKuyJHP-12" target="etSmLf3MKr0KJwKuyJHP-14">
          <mxGeometry relative="1" as="geometry" />
        </mxCell>
        <mxCell id="etSmLf3MKr0KJwKuyJHP-12" value="LineFollower" style="rounded=1;whiteSpace=wrap;html=1;fillColor=#b1ddf0;strokeColor=#10739e;" vertex="1" parent="1">
          <mxGeometry x="400" y="110" width="80" height="40" as="geometry" />
        </mxCell>
        <mxCell id="etSmLf3MKr0KJwKuyJHP-6" value="&lt;font style=&quot;font-size: 14px;&quot;&gt;Serviço&lt;/font&gt;" style="text;html=1;align=center;verticalAlign=middle;resizable=0;points=[];autosize=1;strokeColor=none;fillColor=none;" vertex="1" parent="1">
          <mxGeometry x="705" y="190" width="70" height="30" as="geometry" />
        </mxCell>
        <mxCell id="etSmLf3MKr0KJwKuyJHP-10" value="Motors" style="rounded=1;whiteSpace=wrap;html=1;fillColor=#b1ddf0;strokeColor=#10739e;" vertex="1" parent="1">
          <mxGeometry x="405" y="190" width="80" height="40" as="geometry" />
        </mxCell>
        <mxCell id="etSmLf3MKr0KJwKuyJHP-26" style="edgeStyle=orthogonalEdgeStyle;rounded=0;orthogonalLoop=1;jettySize=auto;html=1;entryX=0;entryY=0.5;entryDx=0;entryDy=0;" edge="1" parent="1" source="etSmLf3MKr0KJwKuyJHP-11" target="etSmLf3MKr0KJwKuyJHP-10">
          <mxGeometry relative="1" as="geometry" />
        </mxCell>
        <mxCell id="etSmLf3MKr0KJwKuyJHP-11" value="Buttons" style="rounded=1;whiteSpace=wrap;html=1;fillColor=#b1ddf0;strokeColor=#10739e;" vertex="1" parent="1">
          <mxGeometry x="260" y="190" width="80" height="40" as="geometry" />
        </mxCell>
        <mxCell id="etSmLf3MKr0KJwKuyJHP-14" value="LineSensors" style="rounded=1;whiteSpace=wrap;html=1;fillColor=#b1ddf0;strokeColor=#10739e;" vertex="1" parent="1">
          <mxGeometry x="560" y="190" width="80" height="40" as="geometry" />
        </mxCell>
      </root>
    </mxGraphModel>
  </diagram>
</mxfile>
